# xmcd
#
# Track frame offsets: 
#        150
#        11461
#        25481
#        37908
#        50288
#        61369
#        72414
#        83559
#        95713
#        105493
#        116109
#        127607
#        138731
#        150033
#        164741
#        180283
#
# Disc length: 2595 seconds
#
# Revision: 0
# Processed by: cddbd v1.5.2PL0 Copyright (c) Steve Scherf et al.
# Submitted via: ExactAudioCopyFreeDBPlugin 1.0
#
DISCID=c50a2110
DTITLE=Bo Diddley - L'anthologie Du Blues
DYEAR=2016
DGENRE=Blues
TTITLE0=Bo Diddley
TTITLE1=Before You Accuse Me
TTITLE2=I'm A Man
TTITLE3=Pretty Thing
TTITLE4=Diddley Daddy
TTITLE5=Bring It To Jerome
TTITLE6=Diddy Wah Diddy
TTITLE7=She's Fine She's Mine
TTITLE8=Hey Bo Diddley
TTITLE9=Mona (I Need You Baby)
TTITLE10=I'm Looking For A Woman
TTITLE11=Who Do You Love
TTITLE12=Say, Boss Man
TTITLE13=I'm Bad
TTITLE14=Cops And Robbers
TTITLE15=Down Home Special
EXTD=
EXTT0=
EXTT1=
EXTT2=
EXTT3=
EXTT4=
EXTT5=
EXTT6=
EXTT7=
EXTT8=
EXTT9=
EXTT10=
EXTT11=
EXTT12=
EXTT13=
EXTT14=
EXTT15=
PLAYORDER=
